<?xml version="1.0" encoding="UTF-8"?>
<svg xmlns="http://www.w3.org/2000/svg" xmlns:xlink="http://www.w3.org/1999/xlink" width="24px" height="24px" viewBox="0 0 24 24" version="1.1">
<g id="surface1">
<path style=" stroke:none;fill-rule:nonzero;fill:rgb(100%,100%,100%);fill-opacity:1;" d="M 1.445312 1.035156 L 14.722656 0.0546875 C 16.355469 -0.0859375 16.773438 0.0078125 17.800781 0.753906 L 22.039062 3.742188 C 22.738281 4.253906 22.972656 4.394531 22.972656 4.953125 L 22.972656 21.332031 C 22.972656 22.359375 22.597656 22.964844 21.292969 23.058594 L 5.871094 23.992188 C 4.894531 24.039062 4.425781 23.898438 3.914062 23.246094 L 0.792969 19.1875 C 0.230469 18.4375 0 17.878906 0 17.226562 L 0 2.667969 C 0 1.828125 0.371094 1.128906 1.445312 1.035156 Z M 1.445312 1.035156 "/>
<path style=" stroke:none;fill-rule:evenodd;fill:rgb(0%,0%,0%);fill-opacity:1;" d="M 14.722656 0.0546875 L 1.445312 1.035156 C 0.371094 1.128906 0 1.828125 0 2.667969 L 0 17.226562 C 0 17.878906 0.230469 18.4375 0.792969 19.1875 L 3.914062 23.246094 C 4.425781 23.898438 4.894531 24.039062 5.871094 23.992188 L 21.292969 23.058594 C 22.597656 22.964844 22.972656 22.359375 22.972656 21.332031 L 22.972656 4.953125 C 22.972656 4.421875 22.761719 4.269531 22.144531 3.816406 L 17.800781 0.753906 C 16.773438 0.0078125 16.355469 -0.0859375 14.722656 0.0546875 Z M 6.222656 4.683594 C 4.960938 4.769531 4.675781 4.789062 3.960938 4.207031 L 2.140625 2.761719 C 1.957031 2.574219 2.050781 2.339844 2.515625 2.292969 L 15.28125 1.363281 C 16.355469 1.269531 16.914062 1.640625 17.332031 1.96875 L 19.523438 3.554688 C 19.613281 3.601562 19.847656 3.878906 19.566406 3.878906 L 6.382812 4.675781 L 6.222656 4.6875 Z M 4.753906 21.191406 L 4.753906 7.289062 C 4.753906 6.679688 4.9375 6.402344 5.496094 6.355469 L 20.640625 5.46875 C 21.152344 5.421875 21.386719 5.746094 21.386719 6.355469 L 21.386719 20.164062 C 21.386719 20.773438 21.292969 21.285156 20.453125 21.332031 L 5.964844 22.171875 C 5.125 22.21875 4.753906 21.9375 4.753906 21.191406 Z M 19.058594 8.035156 C 19.148438 8.453125 19.058594 8.875 18.636719 8.921875 L 17.9375 9.058594 L 17.9375 19.324219 C 17.332031 19.652344 16.773438 19.839844 16.308594 19.839844 C 15.5625 19.839844 15.375 19.605469 14.816406 18.90625 L 10.25 11.71875 L 10.25 18.671875 L 11.695312 19 C 11.695312 19 11.695312 19.839844 10.527344 19.839844 L 7.316406 20.027344 C 7.222656 19.839844 7.316406 19.371094 7.640625 19.277344 L 8.480469 19.046875 L 8.480469 9.855469 L 7.316406 9.761719 C 7.222656 9.339844 7.453125 8.734375 8.105469 8.6875 L 11.554688 8.453125 L 16.308594 15.734375 L 16.308594 9.292969 L 15.097656 9.15625 C 15.003906 8.640625 15.375 8.265625 15.839844 8.222656 Z M 19.058594 8.035156 "/>
</g>
</svg>
