<?xml version="1.0" encoding="UTF-8"?>
<svg xmlns="http://www.w3.org/2000/svg" xmlns:xlink="http://www.w3.org/1999/xlink" width="24px" height="24px" viewBox="0 0 24 24" version="1.1">
<g id="surface1">
<path style=" stroke:none;fill-rule:nonzero;fill:rgb(0%,0%,0%);fill-opacity:1;" d="M 12 0 C 5.371094 0 0 5.371094 0 12 C 0 18.628906 5.371094 24 12 24 C 18.628906 24 24 18.628906 24 12 C 24 5.371094 18.628906 0 12 0 Z M 6.808594 10.011719 C 5.664062 10.011719 4.738281 9.085938 4.738281 7.941406 C 4.738281 6.800781 5.664062 5.871094 6.808594 5.871094 C 7.949219 5.871094 8.875 6.796875 8.875 7.941406 C 8.875 9.082031 7.949219 10.011719 6.808594 10.011719 Z M 12 20.390625 C 10.859375 20.390625 9.929688 19.464844 9.929688 18.324219 C 9.929688 17.179688 10.859375 16.253906 12 16.253906 C 13.140625 16.253906 14.070312 17.179688 14.070312 18.324219 C 14.070312 19.464844 13.140625 20.390625 12 20.390625 Z M 12 15.199219 C 10.859375 15.199219 9.929688 14.273438 9.929688 13.132812 C 9.929688 11.988281 10.859375 11.0625 12 11.0625 C 13.140625 11.0625 14.070312 11.988281 14.070312 13.132812 C 14.070312 14.273438 13.144531 15.203125 12 15.203125 Z M 12 10.007812 C 10.855469 10.007812 9.929688 9.082031 9.929688 7.941406 C 9.929688 6.796875 10.855469 5.871094 12 5.871094 C 13.140625 5.871094 14.070312 6.796875 14.070312 7.941406 C 14.070312 9.082031 13.144531 10.011719 12 10.011719 Z M 17.191406 10.007812 C 16.050781 10.007812 15.121094 9.082031 15.121094 7.941406 C 15.121094 6.796875 16.050781 5.871094 17.191406 5.871094 C 18.335938 5.871094 19.261719 6.796875 19.261719 7.941406 C 19.261719 9.082031 18.335938 10.011719 17.191406 10.011719 Z M 17.191406 10.007812 "/>
</g>
</svg>
